<svg width="17" height="17" viewBox="0 0 17 17" fill="none" xmlns="http://www.w3.org/2000/svg">
<path fill-rule="evenodd" clip-rule="evenodd" d="M2.83337 5.66663C2.44217 5.66663 2.12504 5.98376 2.12504 6.37496V13.4583C2.12504 13.8495 2.44217 14.1666 2.83337 14.1666H14.1667C14.5579 14.1666 14.875 13.8495 14.875 13.4583V6.37496C14.875 5.98376 14.5579 5.66663 14.1667 5.66663H2.83337ZM0.708374 6.37496C0.708374 5.20135 1.65977 4.24996 2.83337 4.24996H14.1667C15.3403 4.24996 16.2917 5.20135 16.2917 6.37496V13.4583C16.2917 14.6319 15.3403 15.5833 14.1667 15.5833H2.83337C1.65977 15.5833 0.708374 14.6319 0.708374 13.4583V6.37496Z" fill="#727373"/>
<path fill-rule="evenodd" clip-rule="evenodd" d="M5.58077 2.03902C5.97929 1.64051 6.51979 1.41663 7.08337 1.41663H9.91671C10.4803 1.41663 11.0208 1.64051 11.4193 2.03902C11.8178 2.43754 12.0417 2.97804 12.0417 3.54163V14.875C12.0417 15.2662 11.7246 15.5833 11.3334 15.5833C10.9422 15.5833 10.625 15.2662 10.625 14.875V3.54163C10.625 3.35376 10.5504 3.1736 10.4176 3.04076C10.2847 2.90792 10.1046 2.83329 9.91671 2.83329H7.08337C6.89551 2.83329 6.71534 2.90792 6.58251 3.04076C6.44967 3.1736 6.37504 3.35376 6.37504 3.54163V14.875C6.37504 15.2662 6.05791 15.5833 5.66671 15.5833C5.27551 15.5833 4.95837 15.2662 4.95837 14.875V3.54163C4.95837 2.97804 5.18226 2.43754 5.58077 2.03902Z" fill="#727373"/>
</svg>
