<svg width="24" height="24" viewBox="0 0 24 24" fill="none" xmlns="http://www.w3.org/2000/svg">
<path fill-rule="evenodd" clip-rule="evenodd" d="M2 12C2 11.4477 2.44772 11 3 11H21C21.5523 11 22 11.4477 22 12C22 12.5523 21.5523 13 21 13H3C2.44772 13 2 12.5523 2 12Z" fill="#2D8DFF"/>
<path fill-rule="evenodd" clip-rule="evenodd" d="M2 6C2 5.44772 2.44772 5 3 5H21C21.5523 5 22 5.44772 22 6C22 6.55228 21.5523 7 21 7H3C2.44772 7 2 6.55228 2 6Z" fill="#2D8DFF"/>
<path fill-rule="evenodd" clip-rule="evenodd" d="M2 18C2 17.4477 2.33579 17 2.75 17H16.25C16.6642 17 17 17.4477 17 18C17 18.5523 16.6642 19 16.25 19H2.75C2.33579 19 2 18.5523 2 18Z" fill="#2D8DFF"/>
</svg>
