<svg id="Layer_1" data-name="Layer 1" xmlns="http://www.w3.org/2000/svg" viewBox="0 0 374.17 374.17"><title>menu</title><path d="M192.4,93.56q62.46,0,124.91,0c12.86,0,21.34,11.52,17,23.08-2.42,6.49-7.33,10.14-14.21,11a45.65,45.65,0,0,1-5.49.12H70.32a38.56,38.56,0,0,1-7.46-.37c-8.19-1.62-14-9.65-13.35-18a17,17,0,0,1,16-15.7c5.49-.24,11-.08,16.49-.08Z"/><path d="M159.19,213.6c-30.65,0-61.3.07-92,0-12.85-.05-21.05-11.77-16.59-23.31,2.63-6.81,8.82-10.86,16.91-10.87q53.48,0,107,0c25.82,0,51.64-.06,77.46,0a16.6,16.6,0,0,1,16.61,14.36c1.3,9-3.22,16.72-11.52,19.07a29.39,29.39,0,0,1-7.91.72Q204.17,213.65,159.19,213.6Z"/><path d="M146.67,299.44c-27.16,0-54.31.07-81.47,0-11.39,0-18.65-11.76-14.7-23.31,2.33-6.81,7.82-10.86,15-10.87q47.38,0,94.76,0c22.88,0,45.75-.06,68.63.05,7.65,0,13.66,6.13,14.71,14.36,1.16,9-2.85,16.72-10.2,19.07a23.17,23.17,0,0,1-7,.72Q186.52,299.48,146.67,299.44Z"/></svg>